#tb 0: 1/25
#media_type 0: video
#codec_id 0: rawvideo
#dimensions 0: 192x128
#sar 0: 0/1
0,          0,          0,        1,    36864, 0x3d54d3e3
0,          1,          1,        1,    36864, 0xa9573ef0
0,          2,          2,        1,    36864, 0x0ea5f263
0,          3,          3,        1,    36864, 0x5a849fb9
0,          4,          4,        1,    36864, 0x7ddb1eff
0,          5,          5,        1,    36864, 0x5e73e3b7
0,          6,          6,        1,    36864, 0x7d50d329
0,          7,          7,        1,    36864, 0xf2c2cd27
0,          8,          8,        1,    36864, 0xdf4f4628
0,          9,          9,        1,    36864, 0xddd6d5be
0,         10,         10,        1,    36864, 0xb530e1aa
0,         11,         11,        1,    36864, 0xeca42470
0,         12,         12,        1,    36864, 0xa5701caf
0,         13,         13,        1,    36864, 0x6f5d28fc
0,         14,         14,        1,    36864, 0xd4ab4ab2
0,         15,         15,        1,    36864, 0xf2dfcc22
0,         16,         16,        1,    36864, 0xcaa87e79
